PathFileType	4	(X/Y/Z)	59_2_79_p0_0-474_filt_butterworth.trc
DataRate	CameraRate	NumFrames	NumMarkers	Units	OrigDataRate	OrigDataStartFrame	OrigNumFrames
59.0	59.0	6	27	m	59.0	0	474
Frame#	Time	RHip			RKnee			RAnkle			RBigToe			RSmallToe			RHeel			LHip			LKnee			LAnkle			LBigToe			LSmallToe			LHeel			Neck			Head			Nose			RShoulder			RElbow			RWrist			RThumb			RIndex			RPinky			LShoulder			LElbow			LWrist			LThumb			LIndex			LPinky			
		X1	Y1	Z1	X2	Y2	Z2	X3	Y3	Z3	X4	Y4	Z4	X5	Y5	Z5	X6	Y6	Z6	X7	Y7	Z7	X8	Y8	Z8	X9	Y9	Z9	X10	Y10	Z10	X11	Y11	Z11	X12	Y12	Z12	X13	Y13	Z13	X14	Y14	Z14	X15	Y15	Z15	X16	Y16	Z16	X17	Y17	Z17	X18	Y18	Z18	X19	Y19	Z19	X20	Y20	Z20	X21	Y21	Z21	X22	Y22	Z22	X23	Y23	Z23	X24	Y24	Z24	X25	Y25	Z25	X26	Y26	Z26	X27	Y27	Z27	
0	0.0	0.3200763077075669	0.41062814091863675	0.9758930401129856	0.2999501780301701	0.573666560296199	1.4510420128104404	0.27515790880999913	0.7591660114020965	1.8917514963986581	0.2729223282493045	0.537001759756929	1.9282522795963706	0.3348095430541346	0.6060070537473407	1.9411842289536407	0.2647510978881882	0.8113625249306646	1.9518382981546498	0.10231809325422382	0.46867891385567484	0.9973028259352266	0.10544155588413456	0.6201321986503394	1.4577578658285322	0.12771809423252967	0.7385220309836544	1.8733016682071884	0.12956928591395428	0.5448805135237975	1.9238655666324256	0.07504080568843907	0.6054588058147384	1.9232494338181256	0.14788970089867148	0.8212602933917321	1.9423962230929246	0.18480473970965752	0.28256450816184575	0.3634637202088827	0.17953526175337375	0.2189835037642548	0.10868113354100806	0.17306490412726236	0.18980309729560996	0.2286668626306316	0.3663189281660713	0.32529651517549446	0.45544795562440105	0.4002576110335505	0.3463954096433129	0.7639519751930435	0.28623818826639175	0.32800458683519945	1.0044088983259385	0.17620946500134635	0.29915041761806216	1.075380132570862	0.1842623142023835	0.33178426627576263	1.116323536800746	0.20550267343044618	0.36667096646931624	1.1335086061297186	0.022127968668644665	0.3566146186455866	0.47849282527604786	0.01774275480083265	0.3763146290108918	0.7867438761272578	0.16241592214116696	0.2630333651626776	0.9698322366643233	0.25706758189573414	0.260074396066591	1.0371397867644943	0.2612652939611582	0.2664804741943996	1.0782506956625797	0.22880022099843272	0.31825186846146764	1.092731637524909
1	0.0169491525423728	0.31951520412047935	0.41336290351930577	0.9730974804947187	0.3008727427675599	0.5746485144872815	1.4521350773352626	0.27740767699919017	0.7695733611782912	1.8940663677497969	0.27527115015596415	0.5467416526491415	1.9301926068951842	0.3380842628817437	0.6001791128348472	1.9371111831024461	0.26823698403486107	0.8224415689714124	1.9544454809696932	0.10553886058959863	0.4673571015985312	0.9959367735177368	0.10677782945935309	0.6179983804597746	1.459955638607499	0.13057663521724133	0.7412406727688651	1.8751889184434218	0.13067419567905084	0.5492747057458569	1.9243323654968547	0.07419059676594365	0.6090267953310693	1.9239637972149186	0.14871089017433498	0.8246349727596107	1.9447039967058906	0.18496428949688584	0.28317333833058356	0.3651836180660469	0.18130885752591222	0.22251057242498357	0.10984858918668541	0.17294518995912717	0.18365153029715092	0.22876352903294833	0.3662890996570463	0.3252611286388626	0.455465460983011	0.4003049160976834	0.3463404521409465	0.7640188962568936	0.28631375177876517	0.32820687662838377	1.004300761711828	0.18010109244372835	0.31105070615400093	1.0774860033248665	0.18316512912132146	0.3483864092015898	1.1194310067427289	0.2052237549357649	0.36718250000451175	1.1352580772335328	0.024219539099859647	0.35663005087802807	0.47989189394621623	0.017784140276450415	0.3771603929039745	0.7856744268561924	0.16299480454060633	0.2640088428739163	0.974265970200505	0.25750492374643996	0.26395223617987806	1.0405373333208268	0.2610753008902912	0.26753840015563146	1.0787028851785907	0.2279215118125658	0.32843527165127756	1.0974185764904636
2	0.0338983050847457	0.3190454915043931	0.4157312064347549	0.9701842937917735	0.30159706531542885	0.5752336731183563	1.452113904153502	0.27871454201169676	0.7761130258557345	1.8949383382753928	0.2771884821086073	0.554906401507675	1.931338225605515	0.3406097905380808	0.5982596587932374	1.934872965095233	0.26958109945605985	0.8289449718030705	1.9553181964292514	0.10871226960045113	0.4661545074901901	0.9945454487479011	0.10851294122558636	0.6137002747267782	1.4594682193798199	0.1313291381504437	0.7420244926663688	1.8755665732940057	0.13106192003930445	0.5514010830335665	1.9254375640736174	0.07420977436797455	0.6095546722266068	1.924186847898043	0.14864955981763914	0.8244076332980976	1.9447125956842581	0.1851532369468499	0.2839390726844924	0.3674039865600456	0.181543012820998	0.22326402782579338	0.11153179519770529	0.17247602895455205	0.17928959027359107	0.2293809391998684	0.36627087226687716	0.3252581950460708	0.4554966369119668	0.4002079061528711	0.3461958041332363	0.7637060889343027	0.2864686281522939	0.32852490662745526	1.0045708704473606	0.18138914850319468	0.31634726067715996	1.0783090743845014	0.18250286325007845	0.3582988720064634	1.1208869896605504	0.20507283084457417	0.3676884405319031	1.1367228386681554	0.024711510484266622	0.35420818762648754	0.48037123933047127	0.017831025314192454	0.3776711379791814	0.784253845971475	0.16330410138904639	0.2645482380794608	0.9768797661651003	0.255681432074098	0.2675017004478153	1.0430443337560171	0.2602627802073359	0.2729398987127767	1.0794543452261256	0.2247775672169562	0.33794933076263883	1.101199573708033
3	0.0508474576271186	0.31859965527950995	0.41791168999657224	0.9675710922076604	0.30190799225432724	0.5751810731986224	1.451144077276152	0.27906164585803594	0.7784059091250259	1.8946633956910446	0.27785665666933174	0.558271450810399	1.931277818959864	0.3419187920261832	0.599712741882475	1.9345108392605694	0.2691480523615866	0.8306180151670091	1.9548105262934126	0.11088449096872044	0.4656985468832315	0.9931674503165127	0.11029256182186703	0.6081398366302176	1.4565254262269849	0.13015181596031486	0.7407992891746958	1.8750440136852067	0.13059760967404943	0.5505381578933453	1.925426523502281	0.07473187275918798	0.6076251671931381	1.9238756631558465	0.14807498443919953	0.8220619626940581	1.9432539930750892	0.18531162832748388	0.28468366996725636	0.36964782639348426	0.18071086948416049	0.22208397359161935	0.11423157267632383	0.1723261210908022	0.17583098443645043	0.23053436690920373	0.36626871398704763	0.32534501098573754	0.45552517866681247	0.3997219961050358	0.3459412193341533	0.762840095367326	0.28671620165565903	0.3290653026068687	1.0054539382293397	0.18067581729142945	0.31581824989492857	1.0777999951845043	0.18234456661344786	0.3609719370518245	1.1204045051393687	0.2050620581895492	0.36814652711795437	1.1377741390003004	0.02339775770677924	0.34972290878120904	0.48023892318190803	0.017917285252257987	0.37772183818924515	0.7825887394155888	0.16337576137239185	0.2646291108587692	0.9775648664325401	0.25162427967439505	0.2712903400725004	1.0443727512019534	0.25895179700310544	0.28312681086145736	1.0804642921899497	0.22033612153607485	0.3461745496222492	1.1037485267549254
4	0.0677966101694915	0.3180180309124707	0.42040207429005816	0.9660528088759166	0.3015212702337944	0.5737820830680266	1.449758963527568	0.2789962583206231	0.7785328399073257	1.894258717606695	0.27714382421703665	0.5562532336288714	1.9304400303058193	0.3418125917597493	0.6026261760579426	1.9350421671783473	0.26843394624116407	0.8300643305387463	1.9541838725902376	0.11120909373440237	0.46706036570273113	0.9916041300684986	0.11137474141980336	0.6041991825134345	1.4532176278064015	0.12870415448242506	0.738828502508734	1.8749537199021675	0.1298443248104938	0.5483798422217516	1.9233997994862857	0.07486506352408344	0.6045564914899267	1.9229526277847664	0.1477290636777907	0.8205759386774966	1.9421795143518914	0.18535731567204305	0.28514009879240393	0.37108587397664705	0.1799830379227079	0.22111704056140707	0.11786038775031868	0.172687529304953	0.17135502365008157	0.23209917892247062	0.3662689428216946	0.32560531952800326	0.4555029228772343	0.3986766389356018	0.3456540705216564	0.7617341549977654	0.2869456702647538	0.32970629816304464	1.0066996982733074	0.17987602286876575	0.31395994009785705	1.07694951278365	0.18248312055232385	0.35998287442834837	1.1189910329405335	0.20515393677601718	0.36853737437015044	1.1386150107689976	0.021442040305260528	0.3457304986421517	0.4804814678354782	0.018096167115441576	0.37769644935157987	0.7810928926904205	0.1633668720517552	0.26475654312426705	0.9773877292204144	0.24755001683666192	0.27490192324233687	1.044714665487056	0.2578096711457685	0.29241886027825736	1.0814288472993985	0.2170106517865094	0.3518558873726675	1.1052079335300597
5	0.0847457627118644	0.3173973480112181	0.42275127631844084	0.9658896377101645	0.3002200191873823	0.5701701131313612	1.447933006287891	0.27881819334521085	0.7779058525283383	1.8939863822765417	0.2757419091838075	0.5515648682193729	1.9292233838781983	0.3403226945107096	0.6063694715294946	1.9357916993359716	0.26811120710317293	0.8293275858810663	1.9539624061858132	0.10985076977039442	0.47075599318798134	0.989775053730926	0.11167980466590818	0.6033050326856775	1.4515436580432248	0.12798458612875413	0.7374100221032633	1.8753094534617805	0.1293610203081555	0.5469044215857698	1.9210222803768386	0.07426315763253065	0.6001835102792927	1.921215711829007	0.1477470156482314	0.8204740033039477	1.9419281299730897	0.18529666422847524	0.2852864918258923	0.37154383807766495	0.1796804478234209	0.22101110819560232	0.12143308230779556	0.17257110101304546	0.16512139642312318	0.23413634110481207	0.36624979473517316	0.32603374111328715	0.4553919762713715	0.3973729767175129	0.34537950089980257	0.7609626895871483	0.28702957738435414	0.3301825791725792	1.007714004148954	0.17965315864727688	0.3130293065143884	1.0765396155722082	0.18270155547763217	0.35815595444250053	1.1176985071722443	0.20530299767076976	0.36883163453813406	1.1394023955918273	0.020072989713331713	0.3439446977111102	0.48132241839098927	0.018483499782265565	0.3786069168462977	0.7801315279335796	0.1632076204767812	0.2659092016141974	0.9772783933800822	0.24574042393329135	0.2766932876951853	1.044450820155627	0.2572675989878703	0.29408381344450596	1.0820206773249303	0.21556055707622818	0.3547961936166836	1.1058122453016015
